<svg viewBox="0 0 200 200" xmlns="http://www.w3.org/2000/svg" xmlns:xlink="http://www.w3.org/1999/xlink" id="a" overflow="hidden"><style>
.MsftOfcThm_Background2_Fill_v2 {
 fill:#0766D1; 
}
</style>
<g id="b"><path d="M119.01 61.72C119.19 62.67 120.1 63.31 121.05 63.12 122 62.95 122.63 62.03 122.45 61.08 120.19 48.78 114.3 37.59 105.44 28.7 93.8 17.05 78.33 10.63 61.87 10.63 45.41 10.63 29.94 17.05 18.3 28.7-1.81 48.84-5.59 79.71 8.99 104.02L3.03 129.13C2.89 129.72 3.07 130.34 3.5 130.77 3.93 131.2 4.55 131.38 5.14 131.23L30.22 125.27C39.77 131 50.77 134.01 61.89 134.01 64.59 134.01 67.31 133.83 70.01 133.47 70.97 133.34 71.64 132.46 71.51 131.51 71.38 130.55 70.5 129.88 69.54 130.01 56.28 131.78 42.74 128.9 31.42 121.92 31.02 121.68 30.55 121.6 30.1 121.71L7.09 127.18 12.56 104.14C12.67 103.69 12.59 103.21 12.35 102.82-1.82 79.79 1.65 50.33 20.77 31.18 31.75 20.19 46.34 14.14 61.87 14.14 77.4 14.14 91.99 20.19 102.96 31.18 111.32 39.56 116.87 50.12 119.01 61.72Z" class="MsftOfcThm_Background2_Fill_v2" stroke="none" stroke-width="1" stroke-linecap="butt" stroke-linejoin="miter" stroke-miterlimit="4" fill="#0766D1" fill-opacity="1"/><path d="M94.41 83.98C82.75 95.63 76.34 111.12 76.34 127.6 76.34 144.08 82.76 159.57 94.41 171.22 106.36 183.17 122.1 189.35 138.01 189.35 148.89 189.35 159.86 186.45 169.74 180.53L194.86 186.5C195.45 186.64 196.07 186.46 196.5 186.03 196.93 185.6 197.11 184.98 196.97 184.39L191 159.28C205.59 134.96 201.81 104.09 181.69 83.98 157.63 59.93 118.48 59.93 94.42 83.98ZM187.64 158.07C187.4 158.47 187.32 158.94 187.43 159.39L192.91 182.44 169.86 176.97C169.41 176.87 168.93 176.94 168.54 177.18 145.51 191.36 116.05 187.89 96.9 168.75 85.91 157.76 79.85 143.14 79.85 127.6 79.85 112.06 85.9 97.44 96.9 86.45 108.25 75.11 123.15 69.43 138.06 69.43 152.97 69.43 167.87 75.1 179.22 86.45 198.37 105.59 201.83 135.04 187.65 158.07Z" class="MsftOfcThm_Background2_Fill_v2" stroke="none" stroke-width="1" stroke-linecap="butt" stroke-linejoin="miter" stroke-miterlimit="4" fill="#0766D1" fill-opacity="1"/><path d="M69.79 74.07 75.23 69.43C78.48 66.66 80.34 62.63 80.34 58.36 80.34 50.29 75.17 43.21 67.49 40.76 60.87 38.65 53.71 40.4 48.8 45.33 46.74 47.4 45.18 50.14 44.3 53.27L43.48 56.17C43.22 57.1 43.76 58.07 44.69 58.33 45.62 58.59 46.59 58.05 46.85 57.12L47.67 54.22C48.4 51.66 49.65 49.44 51.29 47.79 55.26 43.79 61.07 42.38 66.43 44.09 72.66 46.08 76.85 51.81 76.85 58.35 76.85 61.59 75.44 64.66 72.97 66.76L67.53 71.4C62.67 75.54 59.89 81.58 59.89 87.96L59.89 89.91C59.89 90.88 60.67 91.66 61.64 91.66 62.61 91.66 63.39 90.88 63.39 89.91L63.39 87.96C63.39 82.6 65.73 77.54 69.8 74.06Z" class="MsftOfcThm_Background2_Fill_v2" stroke="none" stroke-width="1" stroke-linecap="butt" stroke-linejoin="miter" stroke-miterlimit="4" fill="#0766D1" fill-opacity="1"/><rect x="59.82" y="100.03" rx="1.75" ry="1.75" width="3.62" height="3.62" class="MsftOfcThm_Background2_Fill_v2" stroke="none" stroke-width="1" stroke-linecap="butt" stroke-linejoin="miter" stroke-miterlimit="4" fill="#0766D1" fill-opacity="1"/><path d="M138.04 155.37C137.57 155.36 137.12 155.54 136.79 155.87 136.46 156.2 136.27 156.64 136.26 157.11L136.26 157.15C136.26 158.11 137.09 158.9 138.05 158.91L138.07 158.91C138.53 158.91 138.97 158.71 139.3 158.39 139.63 158.06 139.82 157.6 139.83 157.13 139.83 156.17 139 155.38 138.04 155.37Z" class="MsftOfcThm_Background2_Fill_v2" stroke="none" stroke-width="1" stroke-linecap="butt" stroke-linejoin="miter" stroke-miterlimit="4" fill="#0766D1" fill-opacity="1"/><path d="M138.04 144.41C139.01 144.41 139.79 143.63 139.79 142.66L139.79 96.9C139.79 95.93 139.01 95.15 138.04 95.15 137.07 95.15 136.29 95.93 136.29 96.9L136.29 142.66C136.29 143.63 137.07 144.41 138.04 144.41Z" class="MsftOfcThm_Background2_Fill_v2" stroke="none" stroke-width="1" stroke-linecap="butt" stroke-linejoin="miter" stroke-miterlimit="4" fill="#0766D1" fill-opacity="1"/></g></svg>