<svg viewBox="0 0 200 200" xmlns="http://www.w3.org/2000/svg" xmlns:xlink="http://www.w3.org/1999/xlink" id="a" overflow="hidden"><style>
.MsftOfcThm_Background2_Fill_v2 {
 fill:#0766D1; 
}
</style>
<g id="b"><path d="M17.9 177.65 17.9 197.38C17.9 198.35 18.68 199.13 19.65 199.13L180.35 199.13C181.32 199.13 182.1 198.35 182.1 197.38L182.1 177.65C182.1 168.67 174.8 161.37 165.82 161.37L162.43 161.37 162.43 100.26C162.43 65.89 134.47 37.93 100.1 37.93 65.73 37.93 37.77 65.89 37.77 100.26L37.77 161.37 34.19 161.37C25.21 161.37 17.91 168.67 17.91 177.65ZM41.26 100.26C41.26 67.82 67.65 41.43 100.09 41.43 132.53 41.43 158.92 67.82 158.92 100.26L158.92 161.37 41.26 161.37 41.26 100.26ZM34.19 164.87 38.71 164.87C38.95 165 39.22 165.08 39.52 165.08 39.82 165.08 40.08 165 40.33 164.87L159.88 164.87C160.12 165 160.39 165.08 160.69 165.08 160.99 165.08 161.25 165 161.5 164.87L165.83 164.87C172.88 164.87 178.61 170.6 178.61 177.65L178.61 195.63 21.4 195.63 21.4 177.65C21.4 170.6 27.14 164.87 34.18 164.87Z" class="MsftOfcThm_Background2_Fill_v2" stroke="none" stroke-width="1" stroke-linecap="butt" stroke-linejoin="miter" stroke-miterlimit="4" fill="#0766D1" fill-opacity="1"/><path d="M90.82 62.84C75.77 67.12 64.13 79.22 60.44 94.43 60.21 95.37 60.79 96.32 61.73 96.54 61.87 96.57 62.01 96.59 62.14 96.59 62.93 96.59 63.65 96.05 63.84 95.25 67.23 81.27 77.93 70.14 91.77 66.21 92.7 65.95 93.24 64.98 92.98 64.05 92.72 63.12 91.75 62.58 90.82 62.85Z" class="MsftOfcThm_Background2_Fill_v2" stroke="none" stroke-width="1" stroke-linecap="butt" stroke-linejoin="miter" stroke-miterlimit="4" fill="#0766D1" fill-opacity="1"/><path d="M167.99 30.06 152.95 45.1C152.27 45.78 152.27 46.89 152.95 47.57 153.29 47.91 153.74 48.08 154.19 48.08 154.64 48.08 155.09 47.91 155.43 47.57L170.47 32.53C171.15 31.85 171.15 30.74 170.47 30.06 169.79 29.38 168.68 29.38 168 30.06Z" class="MsftOfcThm_Background2_Fill_v2" stroke="none" stroke-width="1" stroke-linecap="butt" stroke-linejoin="miter" stroke-miterlimit="4" fill="#0766D1" fill-opacity="1"/><path d="M44.57 47.57C44.91 47.91 45.36 48.08 45.81 48.08 46.26 48.08 46.71 47.91 47.05 47.57 47.73 46.89 47.73 45.78 47.05 45.1L32.01 30.06C31.33 29.38 30.22 29.38 29.54 30.06 28.86 30.74 28.86 31.85 29.54 32.53L44.58 47.57Z" class="MsftOfcThm_Background2_Fill_v2" stroke="none" stroke-width="1" stroke-linecap="butt" stroke-linejoin="miter" stroke-miterlimit="4" fill="#0766D1" fill-opacity="1"/><path d="M98.25 2.61 98.25 25.33C98.25 26.3 99.03 27.08 100 27.08 100.97 27.08 101.75 26.3 101.75 25.33L101.75 2.61C101.75 1.64 100.97 0.86 100 0.86 99.03 0.86 98.25 1.64 98.25 2.61Z" class="MsftOfcThm_Background2_Fill_v2" stroke="none" stroke-width="1" stroke-linecap="butt" stroke-linejoin="miter" stroke-miterlimit="4" fill="#0766D1" fill-opacity="1"/><path d="M198 98.78 175.28 98.78C174.31 98.78 173.53 99.56 173.53 100.53 173.53 101.5 174.31 102.28 175.28 102.28L198 102.28C198.97 102.28 199.75 101.5 199.75 100.53 199.75 99.56 198.97 98.78 198 98.78Z" class="MsftOfcThm_Background2_Fill_v2" stroke="none" stroke-width="1" stroke-linecap="butt" stroke-linejoin="miter" stroke-miterlimit="4" fill="#0766D1" fill-opacity="1"/><path d="M2 102.28 24.72 102.28C25.69 102.28 26.47 101.5 26.47 100.53 26.47 99.56 25.69 98.78 24.72 98.78L2 98.78C1.03 98.78 0.25 99.56 0.25 100.53 0.25 101.5 1.03 102.28 2 102.28Z" class="MsftOfcThm_Background2_Fill_v2" stroke="none" stroke-width="1" stroke-linecap="butt" stroke-linejoin="miter" stroke-miterlimit="4" fill="#0766D1" fill-opacity="1"/></g></svg>