<svg viewBox="0 0 200 200" xmlns="http://www.w3.org/2000/svg" xmlns:xlink="http://www.w3.org/1999/xlink" id="a" overflow="hidden"><style>
.MsftOfcThm_Background2_Fill_v2 {
 fill:#0766D1; 
}
</style>
<g id="b"><path d="M180.54 53.53C166.51 39.49 147.12 32.6 127.34 34.66 126.38 34.76 125.68 35.62 125.78 36.58 125.88 37.54 126.74 38.25 127.7 38.14 146.42 36.2 164.78 42.71 178.06 56.01 198.5 76.44 202.2 107.89 187.06 132.48 186.82 132.88 186.74 133.35 186.85 133.8L192.73 158.55 167.99 152.67C167.54 152.56 167.06 152.64 166.67 152.88 154.7 160.26 140.37 163.35 126.34 161.59 125.38 161.45 124.51 162.15 124.39 163.11 124.27 164.07 124.95 164.94 125.91 165.06 128.63 165.4 131.36 165.57 134.08 165.57 145.96 165.57 157.7 162.36 167.89 156.24L194.7 162.61C195.29 162.75 195.91 162.57 196.34 162.15 196.77 161.73 196.95 161.1 196.81 160.51L190.44 133.7C205.99 107.82 201.98 74.95 180.56 53.54Z" class="MsftOfcThm_Background2_Fill_v2" stroke="none" stroke-width="1" stroke-linecap="butt" stroke-linejoin="miter" stroke-miterlimit="4" fill="#0766D1" fill-opacity="1"/><path d="M11.07 138.93 3.68 170.04C3.54 170.63 3.72 171.25 4.15 171.68 4.58 172.11 5.2 172.29 5.79 172.14L36.9 164.75C49.05 172.08 62.54 175.65 75.93 175.65 95.43 175.65 114.72 168.06 129.37 153.42 144.02 138.78 151.52 120.14 151.52 99.93 151.52 79.72 143.65 60.73 129.37 46.45 99.88 16.96 51.89 16.96 22.4 46.45-2.31 71.17-6.92 109.09 11.07 138.93ZM24.87 48.93C53 20.8 98.76 20.8 126.89 48.93 140.52 62.55 148.02 80.67 148.02 99.94 148.02 119.21 140.52 137.33 126.89 150.95 103.16 174.68 66.66 178.97 38.11 161.4 37.83 161.23 37.51 161.14 37.19 161.14 37.05 161.14 36.92 161.16 36.79 161.19L7.74 168.09 14.64 139.04C14.75 138.59 14.67 138.11 14.43 137.72-3.15 109.17 1.15 72.66 24.87 48.93Z" class="MsftOfcThm_Background2_Fill_v2" stroke="none" stroke-width="1" stroke-linecap="butt" stroke-linejoin="miter" stroke-miterlimit="4" fill="#0766D1" fill-opacity="1"/><path d="M51.95 101.18C52.12 101.34 52.31 101.47 52.52 101.56 52.73 101.64 52.96 101.69 53.19 101.69 53.42 101.69 53.65 101.64 53.86 101.56 54.07 101.47 54.27 101.34 54.43 101.18 54.76 100.85 54.94 100.41 54.94 99.94 54.94 99.83 54.93 99.71 54.91 99.6 54.89 99.49 54.85 99.38 54.81 99.27 54.77 99.17 54.71 99.06 54.65 98.97 54.58 98.87 54.51 98.78 54.43 98.7 54.03 98.3 53.42 98.1 52.85 98.22 52.74 98.25 52.63 98.28 52.52 98.32 52.42 98.37 52.32 98.42 52.22 98.48 52.13 98.55 52.04 98.62 51.95 98.7 51.87 98.78 51.8 98.87 51.74 98.97 51.67 99.06 51.62 99.17 51.58 99.27 51.53 99.38 51.5 99.49 51.48 99.6 51.45 99.71 51.44 99.83 51.44 99.94 51.44 100.17 51.49 100.4 51.57 100.61 51.66 100.82 51.79 101.01 51.95 101.18Z" class="MsftOfcThm_Background2_Fill_v2" stroke="none" stroke-width="1" stroke-linecap="butt" stroke-linejoin="miter" stroke-miterlimit="4" fill="#0766D1" fill-opacity="1"/><path d="M74.65 101.18C74.81 101.34 75 101.47 75.22 101.56 75.43 101.64 75.65 101.69 75.89 101.69 76.13 101.69 76.35 101.64 76.56 101.56 76.77 101.47 76.96 101.34 77.12 101.18 77.46 100.85 77.64 100.41 77.64 99.94 77.64 99.83 77.64 99.71 77.6 99.6 77.58 99.49 77.55 99.38 77.5 99.27 77.46 99.17 77.41 99.06 77.34 98.97 77.28 98.87 77.21 98.78 77.12 98.7 76.72 98.3 76.11 98.1 75.54 98.22 75.43 98.25 75.32 98.28 75.22 98.32 75.11 98.37 75.01 98.42 74.92 98.48 74.82 98.55 74.73 98.62 74.65 98.7 74.57 98.78 74.5 98.87 74.43 98.97 74.37 99.06 74.32 99.17 74.27 99.27 74.23 99.38 74.19 99.49 74.17 99.6 74.15 99.71 74.14 99.83 74.14 99.94 74.14 100.17 74.18 100.4 74.27 100.61 74.36 100.82 74.48 101.01 74.65 101.18Z" class="MsftOfcThm_Background2_Fill_v2" stroke="none" stroke-width="1" stroke-linecap="butt" stroke-linejoin="miter" stroke-miterlimit="4" fill="#0766D1" fill-opacity="1"/><path d="M97.34 101.18C97.51 101.34 97.7 101.47 97.91 101.56 98.12 101.64 98.35 101.69 98.58 101.69 98.81 101.69 99.04 101.64 99.25 101.56 99.46 101.47 99.65 101.34 99.82 101.18 100.15 100.85 100.33 100.41 100.33 99.94 100.33 99.83 100.32 99.71 100.3 99.6 100.28 99.49 100.24 99.38 100.2 99.27 100.16 99.17 100.1 99.06 100.04 98.97 99.97 98.87 99.9 98.78 99.82 98.7 99.42 98.3 98.81 98.1 98.24 98.22 98.13 98.25 98.02 98.28 97.91 98.32 97.81 98.37 97.71 98.42 97.61 98.48 97.51 98.55 97.42 98.62 97.34 98.7 97.26 98.78 97.19 98.87 97.13 98.97 97.06 99.06 97.01 99.17 96.97 99.27 96.92 99.38 96.89 99.49 96.87 99.6 96.84 99.71 96.83 99.83 96.83 99.94 96.83 100.17 96.88 100.4 96.96 100.61 97.05 100.82 97.18 101.01 97.34 101.18Z" class="MsftOfcThm_Background2_Fill_v2" stroke="none" stroke-width="1" stroke-linecap="butt" stroke-linejoin="miter" stroke-miterlimit="4" fill="#0766D1" fill-opacity="1"/></g></svg>