<svg viewBox="0 0 318.15 131.61" xmlns="http://www.w3.org/2000/svg" xmlns:xlink="http://www.w3.org/1999/xlink" id="Layer_1" overflow="hidden"><style>
.MsftOfcThm_Background1_Fill_v2 {
 fill:#FFFFFF; 
}
</style>
<defs></defs><path d="M112.89 75.76C113.36 88.52 123.67 92.56 134.6 92.56 142.88 92.56 154.13 90.55 154.13 79.63 154.13 68.71 141.01 66.69 127.73 63.5 114.61 60.31 101.33 55.6 101.33 38.97 101.33 21.5 117.42 14.28 131.48 14.28 149.29 14.28 163.51 20.33 164.6 41.5L151.32 41.5C150.38 30.41 141.33 26.88 132.57 26.88 124.6 26.88 115.39 29.24 115.39 37.97 115.39 48.22 129.45 49.9 141.79 53.08 155.07 56.27 168.19 60.97 168.19 77.77 168.19 98.44 150.23 105.15 133.82 105.15 115.7 105.15 100.39 97.25 99.61 75.76L112.89 75.76Z" class="cls-1 MsftOfcThm_Background1_Fill_v2" fill="#FFFFFF"/><path d="M225.06 72.9C225.06 80.79 217.87 92.55 200.37 92.55 192.25 92.55 184.75 89.19 184.75 79.79 184.75 69.2 192.25 65.85 201 64.17 209.91 62.49 219.91 62.32 225.06 58.29L225.06 72.9ZM246.62 91.71C244.9 92.38 243.65 92.55 242.56 92.55 238.34 92.55 238.34 89.53 238.34 82.81L238.34 38.12C238.34 17.8 222.57 14.26 208.04 14.26 190.07 14.26 174.6 21.82 173.82 43.32L187.1 43.32C187.73 30.56 196.01 26.86 207.26 26.86 215.7 26.86 225.22 28.88 225.22 41.31 225.22 52.06 212.73 51.05 198.04 54.08 184.3 56.93 170.71 61.13 170.71 80.79 170.71 98.1 182.74 105.15 197.42 105.15 208.66 105.15 218.5 100.95 225.85 91.71 225.85 101.12 230.23 105.15 237.11 105.15 241.32 105.15 244.29 104.31 246.63 102.8L246.63 91.71Z" class="cls-1 MsftOfcThm_Background1_Fill_v2" fill="#FFFFFF"/><path d="M258.94 75.76C259.4 88.52 269.71 92.56 280.65 92.56 288.93 92.56 300.18 90.55 300.18 79.63 300.18 68.71 287.06 66.69 273.78 63.5 260.66 60.31 247.38 55.6 247.38 38.97 247.38 21.5 263.47 14.28 277.54 14.28 295.35 14.28 309.57 20.33 310.66 41.5L297.38 41.5C296.44 30.41 287.38 26.88 278.63 26.88 270.66 26.88 261.44 29.24 261.44 37.97 261.44 48.22 275.51 49.9 287.84 53.08 301.12 56.27 314.24 60.97 314.24 77.77 314.24 98.44 296.27 105.15 279.87 105.15 261.75 105.15 246.43 97.25 245.66 75.76L258.95 75.76Z" class="cls-1 MsftOfcThm_Background1_Fill_v2" fill="#FFFFFF"/><path d="M55.71 38.62 75.87 62.97C103.01 95.9 78.19 124.44 55.99 129.99 30.39 136.39 7.22 123.07 0.32 102.7 9.22 117.21 35.08 120.36 49.16 111.52 65.14 101.48 70.41 83.86 58.63 69.55 58.63 69.55 49.18 58.18 42.15 49.73L42.22 49.81C41.58 49.04 41.22 48.6 41.21 48.59 38.15 44.89 39.24 39.83 42.95 36.77 46.64 33.73 51.63 33.71 54.7 37.36L56.91 40.03" class="cls-1 MsftOfcThm_Background1_Fill_v2" fill="#FFFFFF"/><path d="M28.06 88.3 32.64 93.84C35.71 97.49 40.71 97.47 44.4 94.42 48.11 91.36 49.2 86.31 46.14 82.6 46.13 82.6 44.33 80.43 41.72 77.3L44.33 80.34C37.49 72.11 29.13 62.06 29.13 62.06 17.35 47.76 22.62 30.13 38.6 20.09 52.68 11.25 78.54 14.39 87.44 28.92 80.53 8.53 57.37-4.78 31.77 1.62 9.56 7.16-15.25 35.7 11.88 68.64L31.11 91.86" class="cls-1 MsftOfcThm_Background1_Fill_v2" fill="#FFFFFF"/><path d="M308.78 102.91C308.78 100.48 310.61 98.65 312.96 98.65 315.31 98.65 317.11 100.48 317.11 102.91 317.11 105.34 315.27 107.2 312.96 107.2 310.65 107.2 308.78 105.37 308.78 102.91ZM312.96 108.04C315.75 108.04 318.15 105.88 318.15 102.91 318.15 99.94 315.75 97.79 312.96 97.79 310.17 97.79 307.74 99.97 307.74 102.91 307.74 105.85 310.14 108.04 312.96 108.04ZM311.87 103.31 312.9 103.31 314.46 105.88 315.47 105.88 313.79 103.27C314.66 103.17 315.33 102.71 315.33 101.64 315.33 100.47 314.64 99.96 313.23 99.96L310.98 99.96 310.98 105.88 311.87 105.88 311.87 103.31ZM311.87 102.56 311.87 100.72 313.09 100.72C313.71 100.72 314.38 100.85 314.38 101.59 314.38 102.49 313.71 102.56 312.94 102.56L311.87 102.56Z" class="cls-1 MsftOfcThm_Background1_Fill_v2" fill="#FFFFFF"/><path d="M90.73 102.91C90.73 100.48 92.56 98.65 94.91 98.65 97.26 98.65 99.07 100.48 99.07 102.91 99.07 105.34 97.23 107.2 94.91 107.2 92.59 107.2 90.73 105.37 90.73 102.91ZM94.91 108.04C97.7 108.04 100.1 105.88 100.1 102.91 100.1 99.94 97.7 97.79 94.91 97.79 92.12 97.79 89.69 99.97 89.69 102.91 89.69 105.85 92.09 108.04 94.91 108.04ZM93.82 103.31 94.85 103.31 96.41 105.88 97.42 105.88 95.74 103.27C96.61 103.17 97.28 102.71 97.28 101.64 97.28 100.47 96.59 99.96 95.18 99.96L92.93 99.96 92.93 105.88 93.83 105.88 93.83 103.31ZM93.82 102.56 93.82 100.72 95.04 100.72C95.66 100.72 96.33 100.85 96.33 101.59 96.33 102.49 95.66 102.56 94.89 102.56L93.82 102.56Z" class="cls-1 MsftOfcThm_Background1_Fill_v2" fill="#FFFFFF"/></svg>