<svg viewBox="0 0 200 200" xmlns="http://www.w3.org/2000/svg" xmlns:xlink="http://www.w3.org/1999/xlink" id="a" overflow="hidden"><style>
.MsftOfcThm_Background2_Fill_v2 {
 fill:#0766D1; 
}
</style>
<g id="b"><path d="M88.35 135.23C87.67 135.91 87.67 137.02 88.35 137.7 88.69 138.04 89.14 138.21 89.59 138.21 90.04 138.21 90.49 138.04 90.83 137.7L127.3 101.23C127.38 101.15 127.45 101.06 127.52 100.96 127.55 100.92 127.57 100.87 127.59 100.83 127.62 100.77 127.65 100.72 127.68 100.66 127.7 100.6 127.72 100.54 127.73 100.48 127.74 100.43 127.76 100.38 127.77 100.33 127.81 100.1 127.81 99.87 127.77 99.64 127.76 99.59 127.74 99.54 127.73 99.49 127.71 99.43 127.7 99.37 127.68 99.31 127.66 99.25 127.62 99.2 127.59 99.14 127.57 99.1 127.55 99.05 127.52 99.01 127.46 98.91 127.38 98.82 127.3 98.74L90.83 62.27C90.15 61.59 89.04 61.59 88.35 62.27 87.67 62.95 87.67 64.06 88.35 64.74L121.84 98.23 6.77 98.23C5.8 98.23 5.02 99.01 5.02 99.98 5.02 100.95 5.8 101.73 6.77 101.73L121.84 101.73 88.35 135.22Z" class="MsftOfcThm_Background2_Fill_v2" stroke="none" stroke-width="1" stroke-linecap="butt" stroke-linejoin="miter" stroke-miterlimit="4" fill="#7E889A" fill-opacity="1"/><path d="M175.57 0.25 53.68 0.25C42.98 0.25 34.27 8.96 34.27 19.66L34.27 57.29C34.27 58.26 35.05 59.04 36.02 59.04 36.99 59.04 37.77 58.26 37.77 57.29L37.77 19.66C37.77 10.89 44.91 3.75 53.68 3.75L175.58 3.75C184.35 3.75 191.49 10.89 191.49 19.66L191.49 180.34C191.49 189.11 184.35 196.25 175.58 196.25L53.68 196.25C44.91 196.25 37.77 189.11 37.77 180.34L37.77 142.71C37.77 141.74 36.99 140.96 36.02 140.96 35.05 140.96 34.27 141.74 34.27 142.71L34.27 180.34C34.27 191.04 42.98 199.75 53.68 199.75L175.58 199.75C186.28 199.75 194.99 191.04 194.99 180.34L194.99 19.66C194.99 8.96 186.28 0.25 175.58 0.25Z" class="MsftOfcThm_Background2_Fill_v2" stroke="none" stroke-width="1" stroke-linecap="butt" stroke-linejoin="miter" stroke-miterlimit="4" fill="#7E889A" fill-opacity="1"/></g></svg>