<svg viewBox="0 0 200 200" xmlns="http://www.w3.org/2000/svg" xmlns:xlink="http://www.w3.org/1999/xlink" id="a" overflow="hidden"><style>
.MsftOfcThm_Accent1_Fill_v2 {
 fill:#0766D1; 
}
</style>
<g id="b"><path d="M82.72 105.59C82.98 105.73 83.27 105.81 83.56 105.81 83.89 105.81 84.21 105.72 84.5 105.54L135.41 73.23C135.92 72.91 136.22 72.35 136.22 71.75 136.22 71.15 135.91 70.59 135.41 70.27L84.5 37.96C83.96 37.62 83.28 37.6 82.72 37.9 82.16 38.21 81.81 38.79 81.81 39.43L81.81 104.05C81.81 104.69 82.16 105.28 82.72 105.58ZM85.31 42.63 131.2 71.75 85.31 100.87 85.31 42.62Z" class="MsftOfcThm_Accent1_Fill_v2" stroke="none" stroke-width="1" stroke-linecap="butt" stroke-linejoin="miter" stroke-miterlimit="4" fill="#0766D1" fill-opacity="1"/><path d="M185.61 9.4 14.39 9.4C6.59 9.4 0.25 15.75 0.25 23.55L0.25 142C0.25 149.8 6.59 156.14 14.39 156.14L77.79 156.14 77.79 187.1 60.16 187.1C59.19 187.1 58.41 187.88 58.41 188.85 58.41 189.82 59.19 190.6 60.16 190.6L138.78 190.6C139.75 190.6 140.53 189.82 140.53 188.85 140.53 187.88 139.75 187.1 138.78 187.1L121.15 187.1 121.15 156.14 185.62 156.14C193.42 156.14 199.76 149.8 199.76 142L199.76 23.55C199.76 15.75 193.42 9.41 185.62 9.41ZM117.63 187.1 81.28 187.1 81.28 156.14 117.63 156.14 117.63 187.1ZM196.25 141.99C196.25 147.86 191.48 152.63 185.61 152.63L14.39 152.63C8.52 152.63 3.75 147.86 3.75 141.99L3.75 23.55C3.75 17.68 8.52 12.91 14.39 12.91L185.6 12.91C191.47 12.91 196.24 17.68 196.24 23.55L196.24 141.99Z" class="MsftOfcThm_Accent1_Fill_v2" stroke="none" stroke-width="1" stroke-linecap="butt" stroke-linejoin="miter" stroke-miterlimit="4" fill="#0766D1" fill-opacity="1"/><path d="M185.08 127.86 13.85 127.86C12.88 127.86 12.1 128.64 12.1 129.61 12.1 130.58 12.88 131.36 13.85 131.36L185.08 131.36C186.05 131.36 186.83 130.58 186.83 129.61 186.83 128.64 186.05 127.86 185.08 127.86Z" class="MsftOfcThm_Accent1_Fill_v2" stroke="none" stroke-width="1" stroke-linecap="butt" stroke-linejoin="miter" stroke-miterlimit="4" fill="#0766D1" fill-opacity="1"/><path d="M101.62 141.4C101.57 141.29 101.52 141.19 101.46 141.1 101.39 141 101.32 140.91 101.24 140.83 101.16 140.75 101.07 140.67 100.97 140.61 100.88 140.55 100.78 140.49 100.67 140.45 100.57 140.41 100.46 140.37 100.34 140.35 100.12 140.31 99.89 140.31 99.66 140.35 99.55 140.37 99.44 140.41 99.33 140.45 99.23 140.49 99.13 140.55 99.03 140.61 98.93 140.67 98.84 140.75 98.76 140.83 98.68 140.91 98.61 141 98.55 141.1 98.49 141.19 98.43 141.29 98.39 141.4 98.34 141.5 98.31 141.61 98.29 141.72 98.26 141.84 98.25 141.95 98.25 142.07 98.25 142.53 98.43 142.97 98.76 143.3 98.93 143.47 99.12 143.6 99.33 143.68 99.54 143.77 99.77 143.82 100 143.82 100.23 143.82 100.46 143.77 100.67 143.68 100.88 143.6 101.08 143.47 101.24 143.3 101.57 142.97 101.75 142.53 101.75 142.07 101.75 141.95 101.74 141.84 101.72 141.72 101.7 141.61 101.66 141.5 101.62 141.4Z" class="MsftOfcThm_Accent1_Fill_v2" stroke="none" stroke-width="1" stroke-linecap="butt" stroke-linejoin="miter" stroke-miterlimit="4" fill="#0766D1" fill-opacity="1"/></g></svg>