<svg viewBox="0 0 200 200" xmlns="http://www.w3.org/2000/svg" xmlns:xlink="http://www.w3.org/1999/xlink" id="a" overflow="hidden"><style>
.MsftOfcThm_Background2_Fill_v2 {
 fill:#0766D1; 
}
</style>
<g id="b"><path d="M168.32 18.26 153.45 7.85C144.25 1.41 133.08-1.06 122 0.89 110.91 2.85 101.26 8.99 94.82 18.18L65.51 60.04C52.2 79.05 56.83 105.36 75.85 118.67L90.72 129.08C91.03 129.29 91.38 129.4 91.72 129.4 92.27 129.4 92.81 129.14 93.16 128.65 93.71 127.86 93.52 126.77 92.73 126.21L77.86 115.8C60.43 103.59 56.17 79.48 68.38 62.04L97.69 20.18C103.59 11.75 112.44 6.12 122.61 4.33 132.78 2.54 143.02 4.8 151.45 10.71L166.32 21.12C183.75 33.33 188.01 57.44 175.8 74.88L150.85 110.51C150.3 111.3 150.49 112.39 151.28 112.95 152.07 113.5 153.16 113.31 153.72 112.52L178.67 76.89C191.98 57.88 187.35 31.57 168.33 18.26Z" class="MsftOfcThm_Background2_Fill_v2" stroke="none" stroke-width="1" stroke-linecap="butt" stroke-linejoin="miter" stroke-miterlimit="4" fill="#0766D1" fill-opacity="1"/><path d="M49.83 85.5C49.04 84.95 47.95 85.14 47.39 85.93L21.35 123.12C14.91 132.32 12.44 143.49 14.39 154.57 16.34 165.66 22.49 175.31 31.68 181.75L46.55 192.16C53.88 197.29 62.3 199.76 70.64 199.76 83.92 199.76 97 193.5 105.18 181.82L134.49 139.96C140.93 130.76 143.4 119.59 141.45 108.51 139.5 97.42 133.35 87.77 124.16 81.33L109.29 70.92C108.5 70.37 107.41 70.56 106.85 71.35 106.3 72.14 106.49 73.23 107.28 73.79L122.15 84.2C130.58 90.1 136.21 98.95 138 109.12 139.79 119.29 137.53 129.53 131.62 137.96L102.31 179.82C90.1 197.25 65.99 201.51 48.55 189.3L33.68 178.89C25.25 172.99 19.62 164.14 17.83 153.97 16.04 143.8 18.3 133.56 24.21 125.13L50.25 87.94C50.8 87.15 50.61 86.06 49.82 85.5Z" class="MsftOfcThm_Background2_Fill_v2" stroke="none" stroke-width="1" stroke-linecap="butt" stroke-linejoin="miter" stroke-miterlimit="4" fill="#0766D1" fill-opacity="1"/><path d="M41.43 149.8C42.11 153.66 44.25 157.01 47.44 159.25L62.31 169.66C64.86 171.45 67.79 172.3 70.69 172.3 75.31 172.3 79.86 170.12 82.7 166.06L112.01 124.2C114.25 121 115.11 117.12 114.43 113.26 113.75 109.4 111.61 106.05 108.45 103.84L105.36 101.54 93.61 93.31C88.58 89.79 87.35 82.83 90.87 77.79L120.18 35.93C121.88 33.5 124.44 31.87 127.37 31.35 130.3 30.83 133.26 31.48 135.69 33.19L150.56 43.6C155.59 47.12 156.82 54.08 153.3 59.12L138.09 80.84C137.54 81.63 137.73 82.72 138.52 83.28 139.31 83.84 140.4 83.64 140.96 82.85L156.17 61.13C160.8 54.52 159.19 45.37 152.57 40.74L137.7 30.33C134.5 28.09 130.62 27.24 126.76 27.91 122.9 28.59 119.55 30.73 117.31 33.93L88 75.79C83.37 82.4 84.98 91.55 91.6 96.18L103.31 104.38 106.4 106.68C108.83 108.38 110.46 110.94 110.98 113.87 111.5 116.8 110.84 119.76 109.14 122.19L79.83 164.05C76.31 169.08 69.35 170.31 64.31 166.79L49.44 156.38C47.01 154.68 45.38 152.12 44.86 149.19 44.34 146.26 45 143.3 46.7 140.87L61.02 120.42C61.57 119.63 61.38 118.54 60.59 117.98 59.8 117.43 58.71 117.62 58.15 118.41L43.83 138.86C41.59 142.06 40.73 145.94 41.41 149.8Z" class="MsftOfcThm_Background2_Fill_v2" stroke="none" stroke-width="1" stroke-linecap="butt" stroke-linejoin="miter" stroke-miterlimit="4" fill="#0766D1" fill-opacity="1"/></g></svg>